<mxfile host="app.diagrams.net" agent="Mozilla/5.0 (Windows NT 10.0; Win64; x64) AppleWebKit/537.36 (KHTML, like Gecko) Chrome/135.0.0.0 Safari/537.36 Edg/135.0.0.0" version="26.2.10">
  <diagram name="Page-1" id="4WwIMClIfNPrYqUoOqrY">
    <mxGraphModel dx="979" dy="575" grid="1" gridSize="10" guides="1" tooltips="1" connect="1" arrows="1" fold="1" page="1" pageScale="1" pageWidth="827" pageHeight="1169" math="0" shadow="0">
      <root>
        <mxCell id="0" />
        <mxCell id="1" parent="0" />
        <mxCell id="TTiSYJAiojTZVka8pCtS-46" style="edgeStyle=orthogonalEdgeStyle;rounded=0;orthogonalLoop=1;jettySize=auto;html=1;exitX=0.5;exitY=0;exitDx=0;exitDy=0;entryX=0;entryY=0.5;entryDx=0;entryDy=0;fillColor=#a20025;strokeColor=#6F0000;" edge="1" parent="1" source="Jp4Yi4npbjvSnS6v-_Yy-2" target="Jp4Yi4npbjvSnS6v-_Yy-11">
          <mxGeometry relative="1" as="geometry" />
        </mxCell>
        <mxCell id="TTiSYJAiojTZVka8pCtS-66" style="edgeStyle=orthogonalEdgeStyle;rounded=0;orthogonalLoop=1;jettySize=auto;html=1;exitX=0.5;exitY=1;exitDx=0;exitDy=0;entryX=0;entryY=0.5;entryDx=0;entryDy=0;fillColor=#a20025;strokeColor=#6F0000;" edge="1" parent="1" source="Jp4Yi4npbjvSnS6v-_Yy-2" target="Jp4Yi4npbjvSnS6v-_Yy-10">
          <mxGeometry relative="1" as="geometry" />
        </mxCell>
        <mxCell id="Jp4Yi4npbjvSnS6v-_Yy-2" value="12 V power supply" style="rounded=0;whiteSpace=wrap;html=1;fillColor=#f8cecc;strokeColor=#b85450;" parent="1" vertex="1">
          <mxGeometry y="280" width="120" height="60" as="geometry" />
        </mxCell>
        <mxCell id="TTiSYJAiojTZVka8pCtS-77" style="edgeStyle=orthogonalEdgeStyle;rounded=0;orthogonalLoop=1;jettySize=auto;html=1;exitX=0.5;exitY=0;exitDx=0;exitDy=0;entryX=0.5;entryY=1;entryDx=0;entryDy=0;fillColor=#a20025;strokeColor=#6F0000;" edge="1" parent="1" source="Jp4Yi4npbjvSnS6v-_Yy-3" target="Jp4Yi4npbjvSnS6v-_Yy-38">
          <mxGeometry relative="1" as="geometry" />
        </mxCell>
        <mxCell id="Jp4Yi4npbjvSnS6v-_Yy-3" value="24 V power supply" style="rounded=0;whiteSpace=wrap;html=1;fillColor=#f8cecc;strokeColor=#b85450;" parent="1" vertex="1">
          <mxGeometry y="140" width="120" height="60" as="geometry" />
        </mxCell>
        <mxCell id="Jp4Yi4npbjvSnS6v-_Yy-9" value="MCU" style="rounded=0;whiteSpace=wrap;html=1;" parent="1" vertex="1">
          <mxGeometry x="320" y="250" width="120" height="60" as="geometry" />
        </mxCell>
        <mxCell id="TTiSYJAiojTZVka8pCtS-67" style="edgeStyle=orthogonalEdgeStyle;rounded=0;orthogonalLoop=1;jettySize=auto;html=1;exitX=1;exitY=0.5;exitDx=0;exitDy=0;entryX=0.5;entryY=1;entryDx=0;entryDy=0;fillColor=#a20025;strokeColor=#6F0000;" edge="1" parent="1" source="Jp4Yi4npbjvSnS6v-_Yy-10" target="Jp4Yi4npbjvSnS6v-_Yy-9">
          <mxGeometry relative="1" as="geometry" />
        </mxCell>
        <mxCell id="TTiSYJAiojTZVka8pCtS-68" style="edgeStyle=orthogonalEdgeStyle;rounded=0;orthogonalLoop=1;jettySize=auto;html=1;exitX=1;exitY=0.5;exitDx=0;exitDy=0;entryX=1;entryY=0.5;entryDx=0;entryDy=0;fillColor=#a20025;strokeColor=#6F0000;" edge="1" parent="1" source="Jp4Yi4npbjvSnS6v-_Yy-10" target="Jp4Yi4npbjvSnS6v-_Yy-13">
          <mxGeometry relative="1" as="geometry">
            <Array as="points">
              <mxPoint x="710" y="400" />
              <mxPoint x="710" y="350" />
            </Array>
          </mxGeometry>
        </mxCell>
        <mxCell id="TTiSYJAiojTZVka8pCtS-73" style="edgeStyle=orthogonalEdgeStyle;rounded=0;orthogonalLoop=1;jettySize=auto;html=1;exitX=1;exitY=0.5;exitDx=0;exitDy=0;entryX=1;entryY=0.5;entryDx=0;entryDy=0;fillColor=#a20025;strokeColor=#6F0000;" edge="1" parent="1" source="Jp4Yi4npbjvSnS6v-_Yy-10" target="TTiSYJAiojTZVka8pCtS-14">
          <mxGeometry relative="1" as="geometry">
            <Array as="points">
              <mxPoint x="710" y="400" />
              <mxPoint x="710" y="280" />
            </Array>
          </mxGeometry>
        </mxCell>
        <mxCell id="Jp4Yi4npbjvSnS6v-_Yy-10" value="12 V to 5 V" style="rounded=0;whiteSpace=wrap;html=1;" parent="1" vertex="1">
          <mxGeometry x="160" y="370" width="120" height="60" as="geometry" />
        </mxCell>
        <mxCell id="TTiSYJAiojTZVka8pCtS-60" style="edgeStyle=orthogonalEdgeStyle;rounded=0;orthogonalLoop=1;jettySize=auto;html=1;exitX=1;exitY=0.5;exitDx=0;exitDy=0;entryX=0;entryY=0.75;entryDx=0;entryDy=0;fillColor=#a20025;strokeColor=#6F0000;" edge="1" parent="1" source="Jp4Yi4npbjvSnS6v-_Yy-11" target="TTiSYJAiojTZVka8pCtS-37">
          <mxGeometry relative="1" as="geometry" />
        </mxCell>
        <mxCell id="Jp4Yi4npbjvSnS6v-_Yy-11" value="12V to 9 V" style="rounded=0;whiteSpace=wrap;html=1;" parent="1" vertex="1">
          <mxGeometry x="160" y="200" width="120" height="60" as="geometry" />
        </mxCell>
        <mxCell id="TTiSYJAiojTZVka8pCtS-59" value="V(temp)" style="edgeStyle=orthogonalEdgeStyle;rounded=0;orthogonalLoop=1;jettySize=auto;html=1;exitX=0;exitY=0.5;exitDx=0;exitDy=0;entryX=1;entryY=0.75;entryDx=0;entryDy=0;fillColor=#60a917;strokeColor=#2D7600;" edge="1" parent="1" source="Jp4Yi4npbjvSnS6v-_Yy-13" target="Jp4Yi4npbjvSnS6v-_Yy-9">
          <mxGeometry relative="1" as="geometry" />
        </mxCell>
        <mxCell id="Jp4Yi4npbjvSnS6v-_Yy-13" value="TEMP measure of power amplifier" style="rounded=0;whiteSpace=wrap;html=1;" parent="1" vertex="1">
          <mxGeometry x="547" y="320" width="120" height="60" as="geometry" />
        </mxCell>
        <mxCell id="TTiSYJAiojTZVka8pCtS-1" value="" style="rounded=0;whiteSpace=wrap;html=1;dashed=1;fillColor=#f8cecc;strokeColor=#b85450;" vertex="1" parent="1">
          <mxGeometry x="457" width="223" height="130" as="geometry" />
        </mxCell>
        <mxCell id="TTiSYJAiojTZVka8pCtS-62" style="edgeStyle=orthogonalEdgeStyle;rounded=0;orthogonalLoop=1;jettySize=auto;html=1;exitX=1;exitY=0.5;exitDx=0;exitDy=0;entryX=0;entryY=0.5;entryDx=0;entryDy=0;fillColor=#a20025;strokeColor=#6F0000;" edge="1" parent="1" source="Jp4Yi4npbjvSnS6v-_Yy-38" target="Jp4Yi4npbjvSnS6v-_Yy-42">
          <mxGeometry relative="1" as="geometry" />
        </mxCell>
        <mxCell id="Jp4Yi4npbjvSnS6v-_Yy-38" value="ON/OFF switch" style="rounded=0;whiteSpace=wrap;html=1;" parent="1" vertex="1">
          <mxGeometry y="40" width="120" height="60" as="geometry" />
        </mxCell>
        <mxCell id="Jp4Yi4npbjvSnS6v-_Yy-77" value="D1V" style="edgeStyle=orthogonalEdgeStyle;rounded=0;orthogonalLoop=1;jettySize=auto;html=1;exitX=1;exitY=0.75;exitDx=0;exitDy=0;entryX=0;entryY=0.75;entryDx=0;entryDy=0;fillColor=#a20025;strokeColor=#6F0000;" parent="1" source="Jp4Yi4npbjvSnS6v-_Yy-42" target="TTiSYJAiojTZVka8pCtS-2" edge="1">
          <mxGeometry x="-0.0734" relative="1" as="geometry">
            <mxPoint x="721" y="-15" as="targetPoint" />
            <Array as="points">
              <mxPoint x="297" y="85" />
              <mxPoint x="297" y="115" />
              <mxPoint x="437" y="115" />
              <mxPoint x="437" y="90" />
            </Array>
            <mxPoint as="offset" />
          </mxGeometry>
        </mxCell>
        <mxCell id="TTiSYJAiojTZVka8pCtS-71" value="D1S" style="edgeStyle=orthogonalEdgeStyle;rounded=0;orthogonalLoop=1;jettySize=auto;html=1;exitX=0.75;exitY=1;exitDx=0;exitDy=0;entryX=0.75;entryY=0;entryDx=0;entryDy=0;fillColor=#60a917;strokeColor=#2D7600;" edge="1" parent="1" source="Jp4Yi4npbjvSnS6v-_Yy-42" target="TTiSYJAiojTZVka8pCtS-37">
          <mxGeometry x="-0.8165" relative="1" as="geometry">
            <mxPoint as="offset" />
          </mxGeometry>
        </mxCell>
        <mxCell id="TTiSYJAiojTZVka8pCtS-72" value="D2S" style="edgeStyle=orthogonalEdgeStyle;rounded=0;orthogonalLoop=1;jettySize=auto;html=1;exitX=0.25;exitY=1;exitDx=0;exitDy=0;entryX=0.25;entryY=0;entryDx=0;entryDy=0;fillColor=#60a917;strokeColor=#2D7600;" edge="1" parent="1" source="Jp4Yi4npbjvSnS6v-_Yy-42" target="TTiSYJAiojTZVka8pCtS-37">
          <mxGeometry x="-0.8165" relative="1" as="geometry">
            <Array as="points">
              <mxPoint x="187" y="135" />
              <mxPoint x="350" y="135" />
            </Array>
            <mxPoint as="offset" />
          </mxGeometry>
        </mxCell>
        <mxCell id="Jp4Yi4npbjvSnS6v-_Yy-42" value="Current sense block" style="rounded=0;whiteSpace=wrap;html=1;" parent="1" vertex="1">
          <mxGeometry x="157" y="40" width="120" height="60" as="geometry" />
        </mxCell>
        <mxCell id="Jp4Yi4npbjvSnS6v-_Yy-76" value="D2V" style="edgeStyle=orthogonalEdgeStyle;rounded=0;orthogonalLoop=1;jettySize=auto;html=1;exitX=1;exitY=0.25;exitDx=0;exitDy=0;entryX=0;entryY=0.25;entryDx=0;entryDy=0;fillColor=#a20025;strokeColor=#6F0000;" parent="1" source="Jp4Yi4npbjvSnS6v-_Yy-42" target="TTiSYJAiojTZVka8pCtS-2" edge="1">
          <mxGeometry x="-0.0734" relative="1" as="geometry">
            <mxPoint x="781" y="-15" as="targetPoint" />
            <Array as="points">
              <mxPoint x="297" y="55" />
              <mxPoint x="297" y="25" />
              <mxPoint x="447" y="25" />
              <mxPoint x="447" y="50" />
            </Array>
            <mxPoint x="747" y="-35" as="sourcePoint" />
            <mxPoint as="offset" />
          </mxGeometry>
        </mxCell>
        <mxCell id="TTiSYJAiojTZVka8pCtS-4" style="edgeStyle=orthogonalEdgeStyle;rounded=0;orthogonalLoop=1;jettySize=auto;html=1;exitX=1;exitY=0.5;exitDx=0;exitDy=0;entryX=0;entryY=0.5;entryDx=0;entryDy=0;" edge="1" parent="1" source="TTiSYJAiojTZVka8pCtS-2" target="TTiSYJAiojTZVka8pCtS-3">
          <mxGeometry relative="1" as="geometry" />
        </mxCell>
        <mxCell id="TTiSYJAiojTZVka8pCtS-2" value="2x PA" style="triangle;whiteSpace=wrap;html=1;" vertex="1" parent="1">
          <mxGeometry x="470" y="30" width="60" height="80" as="geometry" />
        </mxCell>
        <mxCell id="TTiSYJAiojTZVka8pCtS-11" style="edgeStyle=orthogonalEdgeStyle;rounded=0;orthogonalLoop=1;jettySize=auto;html=1;exitX=1;exitY=0.5;exitDx=0;exitDy=0;entryX=0;entryY=0.5;entryDx=0;entryDy=0;" edge="1" parent="1" source="TTiSYJAiojTZVka8pCtS-3" target="TTiSYJAiojTZVka8pCtS-13">
          <mxGeometry relative="1" as="geometry">
            <mxPoint x="701" y="70" as="targetPoint" />
          </mxGeometry>
        </mxCell>
        <mxCell id="TTiSYJAiojTZVka8pCtS-15" value="Pfwd" style="edgeStyle=orthogonalEdgeStyle;rounded=0;orthogonalLoop=1;jettySize=auto;html=1;exitX=0.25;exitY=1;exitDx=0;exitDy=0;entryX=0.25;entryY=0;entryDx=0;entryDy=0;fillColor=#60a917;strokeColor=#2D7600;" edge="1" parent="1" source="TTiSYJAiojTZVka8pCtS-3" target="TTiSYJAiojTZVka8pCtS-14">
          <mxGeometry relative="1" as="geometry" />
        </mxCell>
        <mxCell id="TTiSYJAiojTZVka8pCtS-18" value="Prefl" style="edgeStyle=orthogonalEdgeStyle;rounded=0;orthogonalLoop=1;jettySize=auto;html=1;exitX=0.75;exitY=1;exitDx=0;exitDy=0;entryX=0.75;entryY=0;entryDx=0;entryDy=0;fillColor=#60a917;strokeColor=#2D7600;" edge="1" parent="1" source="TTiSYJAiojTZVka8pCtS-3" target="TTiSYJAiojTZVka8pCtS-14">
          <mxGeometry relative="1" as="geometry">
            <mxPoint x="626" y="140" as="targetPoint" />
          </mxGeometry>
        </mxCell>
        <mxCell id="TTiSYJAiojTZVka8pCtS-3" value="forward power coupler" style="rounded=0;whiteSpace=wrap;html=1;" vertex="1" parent="1">
          <mxGeometry x="547" y="40" width="120" height="60" as="geometry" />
        </mxCell>
        <mxCell id="TTiSYJAiojTZVka8pCtS-6" style="edgeStyle=orthogonalEdgeStyle;rounded=0;orthogonalLoop=1;jettySize=auto;html=1;exitX=1;exitY=0.5;exitDx=0;exitDy=0;entryX=0;entryY=0.5;entryDx=0;entryDy=0;" edge="1" parent="1" source="TTiSYJAiojTZVka8pCtS-19" target="TTiSYJAiojTZVka8pCtS-2">
          <mxGeometry relative="1" as="geometry">
            <mxPoint x="461" y="70" as="sourcePoint" />
          </mxGeometry>
        </mxCell>
        <mxCell id="TTiSYJAiojTZVka8pCtS-12" value="HPA" style="text;html=1;align=center;verticalAlign=middle;whiteSpace=wrap;rounded=0;" vertex="1" parent="1">
          <mxGeometry x="620" width="60" height="30" as="geometry" />
        </mxCell>
        <mxCell id="TTiSYJAiojTZVka8pCtS-13" value="RT-16 antenna" style="rounded=0;whiteSpace=wrap;html=1;fillColor=#f8cecc;strokeColor=#b85450;" vertex="1" parent="1">
          <mxGeometry x="707" y="40" width="120" height="60" as="geometry" />
        </mxCell>
        <mxCell id="TTiSYJAiojTZVka8pCtS-57" value="Vrms(fwd)" style="edgeStyle=orthogonalEdgeStyle;rounded=0;orthogonalLoop=1;jettySize=auto;html=1;exitX=0;exitY=0.5;exitDx=0;exitDy=0;entryX=1;entryY=0.5;entryDx=0;entryDy=0;fillColor=#60a917;strokeColor=#2D7600;" edge="1" parent="1" source="TTiSYJAiojTZVka8pCtS-14" target="Jp4Yi4npbjvSnS6v-_Yy-9">
          <mxGeometry relative="1" as="geometry">
            <Array as="points">
              <mxPoint x="530" y="280" />
              <mxPoint x="530" y="280" />
            </Array>
          </mxGeometry>
        </mxCell>
        <mxCell id="TTiSYJAiojTZVka8pCtS-58" value="Vrms(ref)" style="edgeStyle=orthogonalEdgeStyle;rounded=0;orthogonalLoop=1;jettySize=auto;html=1;exitX=0;exitY=0.25;exitDx=0;exitDy=0;entryX=1;entryY=0.25;entryDx=0;entryDy=0;fillColor=#60a917;strokeColor=#2D7600;" edge="1" parent="1" source="TTiSYJAiojTZVka8pCtS-14" target="Jp4Yi4npbjvSnS6v-_Yy-9">
          <mxGeometry relative="1" as="geometry">
            <Array as="points">
              <mxPoint x="470" y="265" />
              <mxPoint x="470" y="265" />
            </Array>
          </mxGeometry>
        </mxCell>
        <mxCell id="TTiSYJAiojTZVka8pCtS-14" value="RMS RF Power Detector" style="rounded=0;whiteSpace=wrap;html=1;" vertex="1" parent="1">
          <mxGeometry x="547" y="250" width="120" height="60" as="geometry" />
        </mxCell>
        <mxCell id="TTiSYJAiojTZVka8pCtS-19" value="Frequency upconverter" style="rounded=0;whiteSpace=wrap;html=1;fillColor=#f8cecc;strokeColor=#b85450;" vertex="1" parent="1">
          <mxGeometry x="307" y="40" width="120" height="60" as="geometry" />
        </mxCell>
        <mxCell id="TTiSYJAiojTZVka8pCtS-55" value="Alert" style="edgeStyle=orthogonalEdgeStyle;rounded=0;orthogonalLoop=1;jettySize=auto;html=1;exitX=0.25;exitY=1;exitDx=0;exitDy=0;entryX=0.25;entryY=0;entryDx=0;entryDy=0;fillColor=#e3c800;strokeColor=#B09500;" edge="1" parent="1" source="TTiSYJAiojTZVka8pCtS-37" target="Jp4Yi4npbjvSnS6v-_Yy-9">
          <mxGeometry relative="1" as="geometry" />
        </mxCell>
        <mxCell id="TTiSYJAiojTZVka8pCtS-56" value="SPI" style="edgeStyle=orthogonalEdgeStyle;rounded=0;orthogonalLoop=1;jettySize=auto;html=1;exitX=0.75;exitY=1;exitDx=0;exitDy=0;entryX=0.75;entryY=0;entryDx=0;entryDy=0;fillColor=#e3c800;strokeColor=#B09500;startArrow=classic;startFill=1;" edge="1" parent="1" source="TTiSYJAiojTZVka8pCtS-37" target="Jp4Yi4npbjvSnS6v-_Yy-9">
          <mxGeometry relative="1" as="geometry" />
        </mxCell>
        <mxCell id="TTiSYJAiojTZVka8pCtS-63" value="I/O control" style="edgeStyle=orthogonalEdgeStyle;rounded=0;orthogonalLoop=1;jettySize=auto;html=1;exitX=0;exitY=0.25;exitDx=0;exitDy=0;entryX=0.75;entryY=1;entryDx=0;entryDy=0;fillColor=#e3c800;strokeColor=#B09500;" edge="1" parent="1" source="TTiSYJAiojTZVka8pCtS-37" target="Jp4Yi4npbjvSnS6v-_Yy-38">
          <mxGeometry x="-0.7333" relative="1" as="geometry">
            <Array as="points">
              <mxPoint x="140" y="170" />
              <mxPoint x="140" y="125" />
              <mxPoint x="90" y="125" />
            </Array>
            <mxPoint as="offset" />
          </mxGeometry>
        </mxCell>
        <mxCell id="TTiSYJAiojTZVka8pCtS-37" value="AD7293SDZ" style="rounded=0;whiteSpace=wrap;html=1;" vertex="1" parent="1">
          <mxGeometry x="320" y="155" width="120" height="60" as="geometry" />
        </mxCell>
        <mxCell id="TTiSYJAiojTZVka8pCtS-74" value="CMD" style="edgeStyle=orthogonalEdgeStyle;rounded=0;orthogonalLoop=1;jettySize=auto;html=1;exitX=1;exitY=0.5;exitDx=0;exitDy=0;entryX=0;entryY=0.5;entryDx=0;entryDy=0;fillColor=#e3c800;strokeColor=#B09500;" edge="1" parent="1" source="TTiSYJAiojTZVka8pCtS-47" target="Jp4Yi4npbjvSnS6v-_Yy-9">
          <mxGeometry relative="1" as="geometry" />
        </mxCell>
        <mxCell id="TTiSYJAiojTZVka8pCtS-47" value="Control computer" style="rounded=0;whiteSpace=wrap;html=1;" vertex="1" parent="1">
          <mxGeometry x="160" y="290" width="120" height="60" as="geometry" />
        </mxCell>
        <mxCell id="TTiSYJAiojTZVka8pCtS-75" value="G1V" style="edgeStyle=orthogonalEdgeStyle;rounded=0;orthogonalLoop=1;jettySize=auto;html=1;exitX=1;exitY=0.25;exitDx=0;exitDy=0;entryX=0.287;entryY=0.808;entryDx=0;entryDy=0;entryPerimeter=0;fillColor=#60a917;strokeColor=#2D7600;" edge="1" parent="1" source="TTiSYJAiojTZVka8pCtS-37" target="TTiSYJAiojTZVka8pCtS-2">
          <mxGeometry x="-0.5508" relative="1" as="geometry">
            <mxPoint as="offset" />
          </mxGeometry>
        </mxCell>
        <mxCell id="TTiSYJAiojTZVka8pCtS-76" value="G2V" style="edgeStyle=orthogonalEdgeStyle;rounded=0;orthogonalLoop=1;jettySize=auto;html=1;exitX=1;exitY=0.75;exitDx=0;exitDy=0;entryX=0.701;entryY=0.619;entryDx=0;entryDy=0;entryPerimeter=0;fillColor=#60a917;strokeColor=#2D7600;" edge="1" parent="1" source="TTiSYJAiojTZVka8pCtS-37" target="TTiSYJAiojTZVka8pCtS-2">
          <mxGeometry x="-0.7053" relative="1" as="geometry">
            <mxPoint as="offset" />
          </mxGeometry>
        </mxCell>
        <mxCell id="TTiSYJAiojTZVka8pCtS-79" value="Legend" style="shape=table;startSize=30;container=1;collapsible=0;childLayout=tableLayout;fontSize=16;align=left;verticalAlign=top;fillColor=none;strokeColor=none;fontColor=#4D4D4D;fontStyle=1;spacingLeft=6;spacing=0;resizable=0;" vertex="1" parent="1">
          <mxGeometry x="700" y="155" width="113" height="90" as="geometry" />
        </mxCell>
        <mxCell id="TTiSYJAiojTZVka8pCtS-80" value="" style="shape=tableRow;horizontal=0;startSize=0;swimlaneHead=0;swimlaneBody=0;strokeColor=inherit;top=0;left=0;bottom=0;right=0;collapsible=0;dropTarget=0;fillColor=none;points=[[0,0.5],[1,0.5]];portConstraint=eastwest;fontSize=12;" vertex="1" parent="TTiSYJAiojTZVka8pCtS-79">
          <mxGeometry y="30" width="113" height="20" as="geometry" />
        </mxCell>
        <mxCell id="TTiSYJAiojTZVka8pCtS-81" value="Power line" style="shape=partialRectangle;html=1;whiteSpace=wrap;connectable=0;strokeColor=#6F0000;overflow=hidden;fillColor=#a20025;top=0;left=0;bottom=0;right=0;pointerEvents=1;fontSize=12;align=left;fontColor=#ffffff;spacingLeft=10;spacingRight=4;" vertex="1" parent="TTiSYJAiojTZVka8pCtS-80">
          <mxGeometry width="113" height="20" as="geometry">
            <mxRectangle width="113" height="20" as="alternateBounds" />
          </mxGeometry>
        </mxCell>
        <mxCell id="TTiSYJAiojTZVka8pCtS-82" value="" style="shape=tableRow;horizontal=0;startSize=0;swimlaneHead=0;swimlaneBody=0;strokeColor=inherit;top=0;left=0;bottom=0;right=0;collapsible=0;dropTarget=0;fillColor=none;points=[[0,0.5],[1,0.5]];portConstraint=eastwest;fontSize=12;" vertex="1" parent="TTiSYJAiojTZVka8pCtS-79">
          <mxGeometry y="50" width="113" height="20" as="geometry" />
        </mxCell>
        <mxCell id="TTiSYJAiojTZVka8pCtS-83" value="Analog signal" style="shape=partialRectangle;html=1;whiteSpace=wrap;connectable=0;strokeColor=#005700;overflow=hidden;fillColor=#005700;top=0;left=0;bottom=0;right=0;pointerEvents=1;fontSize=12;align=left;fontColor=#ffffff;spacingLeft=10;spacingRight=4;" vertex="1" parent="TTiSYJAiojTZVka8pCtS-82">
          <mxGeometry width="113" height="20" as="geometry">
            <mxRectangle width="113" height="20" as="alternateBounds" />
          </mxGeometry>
        </mxCell>
        <mxCell id="TTiSYJAiojTZVka8pCtS-84" value="" style="shape=tableRow;horizontal=0;startSize=0;swimlaneHead=0;swimlaneBody=0;strokeColor=inherit;top=0;left=0;bottom=0;right=0;collapsible=0;dropTarget=0;fillColor=none;points=[[0,0.5],[1,0.5]];portConstraint=eastwest;fontSize=12;" vertex="1" parent="TTiSYJAiojTZVka8pCtS-79">
          <mxGeometry y="70" width="113" height="20" as="geometry" />
        </mxCell>
        <mxCell id="TTiSYJAiojTZVka8pCtS-85" value="Digital signal" style="shape=partialRectangle;html=1;whiteSpace=wrap;connectable=0;strokeColor=#B09500;overflow=hidden;fillColor=#B09500;top=0;left=0;bottom=0;right=0;pointerEvents=1;fontSize=12;align=left;fontColor=#000000;spacingLeft=10;spacingRight=4;" vertex="1" parent="TTiSYJAiojTZVka8pCtS-84">
          <mxGeometry width="113" height="20" as="geometry">
            <mxRectangle width="113" height="20" as="alternateBounds" />
          </mxGeometry>
        </mxCell>
      </root>
    </mxGraphModel>
  </diagram>
</mxfile>
